# xmcd
#
# Track frame offsets: 
#        150
#        10182
#        24852
#        34385
#        43250
#        56427
#        67432
#        152485
#        192665
#        205987
#        224305
#        232395
#        245722
#
# Disc length: 3399 seconds
#
# Revision: 3
# Processed by: cddbd v1.5.2PL0 Copyright (c) Steve Scherf et al.
# Submitted via: ExactAudioCopy v1.3
#
DISCID=c70d450d
DTITLE=Royal Concertgebouw Orchestra - RCO 125 anniversary edition - Th
DTITLE=e Radio Legacy, CD 098 [Bernard Haitink, chief conductor 1963-1
DTITLE=988]
DYEAR=2013
DGENRE=Classical
TTITLE0=Claude Debussy: Six épigraphes antiques, para piano a cuatro m
TTITLE0=anos (1914-1915) [orquestación de Rudolf Escher (1975-1977)], 
TTITLE0=CD 139 L131 - I. Pour invoquer Pan, dieu du vent d'été
TTITLE1=Claude Debussy: Six épigraphes antiques, para piano a cuatro m
TTITLE1=anos (1914-1915) [orquestación de Rudolf Escher (1975-1977)], 
TTITLE1=CD 139 L131 - II. Pour un tombeau sans nom
TTITLE2=Claude Debussy: Six épigraphes antiques, para piano a cuatro m
TTITLE2=anos (1914-1915) [orquestación de Rudolf Escher (1975-1977)], 
TTITLE2=CD 139 L131 - III. Pour que la nuit soit propice
TTITLE3=Claude Debussy: Six épigraphes antiques, para piano a cuatro m
TTITLE3=anos (1914-1915) [orquestación de Rudolf Escher (1975-1977)], 
TTITLE3=CD 139 L131 - IV. Pour la danseuse aux crotales
TTITLE4=Claude Debussy: Six épigraphes antiques, para piano a cuatro m
TTITLE4=anos (1914-1915) [orquestación de Rudolf Escher (1975-1977)], 
TTITLE4=CD 139 L131 - V. Pour l'égyptienne
TTITLE5=Claude Debussy: Six épigraphes antiques, para piano a cuatro m
TTITLE5=anos (1914-1915) [orquestación de Rudolf Escher (1975-1977)], 
TTITLE5=CD 139 L131 - VI. Pour remercier la pluie au matin 
TTITLE6=Claude Debussy: Jeux (poème dansé) (1912-1913)
TTITLE7=Maurice Ravel: Shéhérazade, ciclo de canciones para soprano (o
TTITLE7=tenor) y orquesta, sobre tres poemas de Tristan Klingsor (190
TTITLE7=3) - I. Asie
TTITLE8=Maurice Ravel: Shéhérazade, ciclo de canciones para soprano (o
TTITLE8=tenor) y orquesta, sobre tres poemas de Tristan Klingsor (190
TTITLE8=3) - II. La flûte enchantée
TTITLE9=Maurice Ravel: Shéhérazade, ciclo de canciones para soprano (o
TTITLE9=tenor) y orquesta, sobre tres poemas de Tristan Klingsor (190
TTITLE9=3) - III. L'indifférent
TTITLE10=Maurice Ravel: Don Quichotte à Dulcinée, ciclo de canciones p
TTITLE10=ara barítono y piano [Texto de Paul Morand] (1932-1933 - orque
TTITLE10=stación de 1934) - I. Chanson romanesque
TTITLE11=Maurice Ravel: Don Quichotte à Dulcinée, ciclo de canciones p
TTITLE11=ara barítono y piano [Texto de Paul Morand] (1932-1933 - orque
TTITLE11=stación de 1934) - II. Chanson épique
TTITLE12=Maurice Ravel: Don Quichotte à Dulcinée, ciclo de canciones p
TTITLE12=ara barítono y piano [Texto de Paul Morand] (1932-1933 - orque
TTITLE12=stación de 1934) - III. Chanson à boire
EXTD=Compilation of live performances by The Royal Concertgebouw Orche
EXTD=stra, directed by Bernard Haitink\n
EXTT0=
EXTT1=
EXTT2=
EXTT3=
EXTT4=
EXTT5=
EXTT6=
EXTT7=
EXTT8=
EXTT9=
EXTT10=
EXTT11=
EXTT12=
PLAYORDER=
